<svg width="84" height="80" viewBox="0 0 84 80" fill="none" xmlns="http://www.w3.org/2000/svg">
<rect width="83.871" height="80" rx="20" fill="#F4F7FF"/>
<path d="M53.5 32C53.5 30.1002 53.4989 28.7257 53.358 27.6775C53.219 26.6437 52.9523 26.0025 52.4749 25.5251C51.9975 25.0477 51.3563 24.781 50.3225 24.642C49.2743 24.5011 47.8998 24.5 46 24.5H34C32.1002 24.5 30.7257 24.5011 29.6775 24.642C28.6437 24.781 28.0025 25.0477 27.5251 25.5251C27.0477 26.0025 26.781 26.6437 26.642 27.6775C26.5011 28.7257 26.5 30.1002 26.5 32V48C26.5 50.8426 26.5011 52.9242 26.7152 54.517C26.9274 56.0954 27.3406 57.1188 28.1109 57.8891C28.8812 58.6594 29.9046 59.0726 31.483 59.2848C33.0758 59.4989 35.1574 59.5 38 59.5H46C47.8998 59.5 49.2743 59.4989 50.3225 59.358C51.3563 59.219 51.9975 58.9523 52.4749 58.4749C52.9523 57.9975 53.219 57.3563 53.358 56.3225C53.4989 55.2743 53.5 53.8998 53.5 52V32Z" stroke="#020053"/>
<path d="M55.5 30C55.5 28.1002 55.4989 26.7257 55.358 25.6775C55.219 24.6437 54.9523 24.0025 54.4749 23.5251C53.9975 23.0477 53.3563 22.781 52.3225 22.642C51.2743 22.5011 49.8998 22.5 48 22.5H36C34.1002 22.5 32.7257 22.5011 31.6775 22.642C30.6437 22.781 30.0025 23.0477 29.5251 23.5251C29.0477 24.0025 28.781 24.6437 28.642 25.6775C28.5011 26.7257 28.5 28.1002 28.5 30V48C28.5 50.3712 28.5011 52.0992 28.6786 53.4197C28.8542 54.7259 29.1942 55.5581 29.818 56.182C30.4419 56.8058 31.2741 57.1458 32.5803 57.3214C33.9008 57.4989 35.6288 57.5 38 57.5H48C49.8998 57.5 51.2743 57.4989 52.3225 57.358C53.3563 57.219 53.9975 56.9523 54.4749 56.4749C54.9523 55.9975 55.219 55.3563 55.358 54.3225C55.4989 53.2743 55.5 51.8998 55.5 50V30Z" fill="#F4F7FF" stroke="#020053"/>
<rect x="30.5" y="20.5" width="27" height="35" rx="3.5" fill="#F4F7FF" stroke="#020053"/>
<rect x="35" y="26" width="18" height="1" rx="0.5" fill="#020053"/>
<rect x="35" y="29" width="18" height="1" rx="0.5" fill="#020053"/>
<rect x="35" y="32" width="18" height="1" rx="0.5" fill="#020053"/>
<rect x="35" y="35" width="18" height="1" rx="0.5" fill="#020053"/>
<rect x="35" y="38" width="18" height="1" rx="0.5" fill="#020053"/>
<rect x="35" y="41" width="18" height="1" rx="0.5" fill="#020053"/>
<rect x="35" y="44" width="18" height="1" rx="0.5" fill="#020053"/>
<rect x="35" y="47" width="18" height="1" rx="0.5" fill="#020053"/>
<rect x="35" y="50" width="18" height="1" rx="0.5" fill="#020053"/>
</svg>
