<svg width="144" height="36" viewBox="0 0 144 36" fill="none" xmlns="http://www.w3.org/2000/svg">
<path d="M17.2069 36C25.9065 36 31.0975 30.4726 32.6355 24.7049L27.3485 22.9746C26.1949 26.8198 22.9266 30.4726 17.2069 30.4726C11.3912 30.4726 5.91188 26.243 5.91188 18.2644C5.91188 9.99733 11.5354 5.91188 17.1589 5.91188C22.8785 5.91188 26.0507 9.2283 27.0601 13.3618L32.4913 11.5354C30.9533 5.57543 25.8104 0.48064 17.1589 0.48064C8.31509 0.48064 0 7.16155 0 18.2644C0 29.3672 8.0267 36 17.2069 36Z" fill="#020053"/>
<path d="M43.5371 35.279V11.8718H38.0097V35.279H43.5371ZM37.1445 3.65287C37.1445 5.67156 38.7787 7.25768 40.7493 7.25768C42.768 7.25768 44.4022 5.67156 44.4022 3.65287C44.4022 1.63418 42.768 0 40.7493 0C38.7787 0 37.1445 1.63418 37.1445 3.65287Z" fill="#020053"/>
<path d="M60.9193 16.2937C64.4761 16.2937 66.0622 18.6008 66.5909 20.6676L71.5896 18.8411C70.6283 15.0921 67.1677 11.1509 60.8713 11.1509C54.1423 11.1509 48.9033 16.3418 48.9033 23.5514C48.9033 30.6649 54.1423 36 61.0155 36C67.1677 36 70.6764 32.0107 71.7818 28.3578L66.8793 26.5794C66.3506 28.3578 64.6684 30.9052 61.0155 30.9052C57.5068 30.9052 54.4788 28.2617 54.4788 23.5514C54.4788 18.8411 57.5068 16.2937 60.9193 16.2937Z" fill="#020053"/>
<path d="M80.3917 21.004C80.5839 18.5047 82.6026 15.8131 86.1113 15.8131C89.9564 15.8131 91.7829 18.2644 91.879 21.004H80.3917ZM92.5038 27.1081C91.7348 29.4152 90.0045 31.1936 86.64 31.1936C83.1794 31.1936 80.3917 28.6462 80.2475 25.0895H97.3583C97.4064 24.9933 97.5025 24.2243 97.5025 23.3111C97.5025 15.9092 93.2729 11.1509 86.0633 11.1509C80.1514 11.1509 74.6721 16.0534 74.6721 23.4553C74.6721 31.3858 80.2956 36 86.64 36C92.2635 36 95.9645 32.6836 97.2141 28.5981L92.5038 27.1081Z" fill="#020053"/>
<path d="M116.529 11.7276C116.288 11.6796 115.712 11.5834 115.039 11.5834C111.963 11.5834 109.367 13.0734 108.262 15.6208V11.8718H102.83V35.279H108.406V24.1282C108.406 19.7543 110.377 17.255 114.702 17.255C115.279 17.255 115.904 17.3031 116.529 17.3992V11.7276Z" fill="#020053"/>
<path d="M131.234 31.0013C127.822 31.0013 124.697 28.4059 124.697 23.5514C124.697 18.6969 127.822 16.1976 131.234 16.1976C134.695 16.1976 137.771 18.6969 137.771 23.5514C137.771 28.4539 134.695 31.0013 131.234 31.0013ZM131.234 11.1509C124.265 11.1509 119.122 16.3899 119.122 23.5514C119.122 30.761 124.265 36 131.234 36C138.251 36 143.394 30.761 143.394 23.5514C143.394 16.3899 138.251 11.1509 131.234 11.1509Z" fill="#020053"/>
</svg>
