<svg width="100" height="104" viewBox="0 0 100 104" fill="none" xmlns="http://www.w3.org/2000/svg">
<path fill-rule="evenodd" clip-rule="evenodd" d="M0 74.1998V95.7402C0 98.0581 1.90027 99.9744 4.21276 99.9996H26.0472C40.1826 99.8673 51.6014 88.3669 51.6014 74.1998C51.6014 59.9509 40.0497 48.399 25.8008 48.399C11.5516 48.399 0 59.9509 0 74.1998ZM0.44501 43.3001C3.71883 18.8539 24.6577 0 50 0C77.6142 0 100 22.3858 100 50C100 75.3392 81.1505 96.276 56.7083 99.5534C70.4043 92.6621 79.8005 78.4793 79.8005 62.1021C79.8005 38.9605 61.0415 20.2011 37.8999 20.2011C21.52 20.2011 7.33521 29.6005 0.44501 43.3001ZM50 104H38.3213C38.3195 104 38.3177 104 38.3158 104L50 104ZM75.8005 62.1021C75.8005 82.0147 60.4433 98.3411 40.9255 99.8826C49.7089 94.6987 55.6014 85.1373 55.6014 74.1998C55.6014 57.7418 42.2589 44.399 25.8008 44.399C14.8642 44.399 5.30348 50.2906 0.11928 59.073C1.66249 39.5568 17.9883 24.2011 37.8999 24.2011C58.8323 24.2011 75.8005 41.1696 75.8005 62.1021Z" fill="#020053"/>
</svg>
