<svg width="108" height="80" viewBox="0 0 108 80" fill="none" xmlns="http://www.w3.org/2000/svg">
<path d="M32.214 36.9889L32.0785 36.5438L31.6248 36.6469L22.6963 38.6761L22.3071 38.7645V39.1636V65.8809L0.669978 44.2437L21.824 4.75622L53.4127 27.8836V64.7839V74.6822L42.2267 69.8882L32.214 36.9889Z" fill="#020053" stroke="#F4F7FF"/>
<path d="M76.2007 36.6469L75.747 36.5438L75.6115 36.9889L65.5987 69.8882L54.4127 74.6822V64.7839V27.8836L86.0014 4.75622L107.155 44.2437L85.5183 65.8809V39.1636V38.7645L85.1291 38.6761L76.2007 36.6469Z" fill="#020053" stroke="#F4F7FF"/>
<path d="M54.7667 65.3076L77.9172 27.7035L65.1905 69.5196L53.9151 74.3519L42.6399 69.5196L29.9132 27.7035L53.0636 65.3076L53.9151 66.6908L54.7667 65.3076Z" fill="#020053" stroke="#F4F7FF" stroke-width="2"/>
<path d="M53.9001 73.9758L45.7115 70.4043L53.9001 66.6343L62.0886 70.4043L53.9001 73.9758Z" fill="#020053" stroke="#F4F7FF" stroke-width="2"/>
</svg>
