<svg width="84" height="80" viewBox="0 0 84 80" fill="none" xmlns="http://www.w3.org/2000/svg">
<rect width="83.871" height="80" rx="20" fill="#F4F7FF"/>
<rect x="-0.5" y="0.5" width="37" height="27" rx="3.5" transform="matrix(-1 0 0 1 61 26)" stroke="#020053"/>
<rect x="-0.5" y="0.5" width="39" height="27" rx="3.5" transform="matrix(-1 0 0 1 61 26)" stroke="#020053"/>
<rect x="26.5" y="26.5" width="35" height="27" rx="3.5" fill="#F4F7FF" stroke="#020053"/>
<rect x="31" y="30.5" width="10" height="1" rx="0.5" fill="#020053"/>
<rect x="45" y="30.5" width="12" height="1" rx="0.5" fill="#020053"/>
<rect x="45" y="38.5" width="12" height="1" rx="0.5" fill="#020053"/>
<rect x="31" y="32.5" width="10" height="1" rx="0.5" fill="#020053"/>
<rect x="45" y="32.5" width="12" height="1" rx="0.5" fill="#020053"/>
<rect x="45" y="40.5" width="12" height="1" rx="0.5" fill="#020053"/>
<rect x="31" y="34.5" width="10" height="1" rx="0.5" fill="#020053"/>
<rect x="45" y="34.5" width="12" height="1" rx="0.5" fill="#020053"/>
<rect x="45" y="42.5" width="12" height="1" rx="0.5" fill="#020053"/>
<rect x="45" y="46.5" width="12" height="1" rx="0.5" fill="#020053"/>
<rect x="31" y="36.5" width="10" height="1" rx="0.5" fill="#020053"/>
<rect x="45" y="36.5" width="12" height="1" rx="0.5" fill="#020053"/>
<rect x="45" y="44.5" width="12" height="1" rx="0.5" fill="#020053"/>
<rect x="45" y="48.5" width="12" height="1" rx="0.5" fill="#020053"/>
<rect x="31" y="39.5" width="10" height="10" rx="2" fill="#020053"/>
<rect x="33" y="25" width="4" height="30" fill="#020053" stroke="#F4F7FF" stroke-width="2"/>
<rect x="50" y="25" width="4" height="30" fill="#020053" stroke="#F4F7FF" stroke-width="2"/>
</svg>
