<svg width="45" height="458" viewBox="0 0 45 458" fill="none" xmlns="http://www.w3.org/2000/svg">
<path d="M1.34375 457.781H44V444.688H32.4688V438.5C32.4688 427.688 25.3438 422.594 17.0313 422.594C8.875 422.594 1.34375 427.531 1.34375 438.312L1.34375 457.781ZM11.0312 444.75L11.0313 441.875C11.0313 438.25 13.0938 435.844 17.0312 435.844C20.875 435.844 23.0312 438.25 23.0312 441.875V444.75H11.0312Z" fill="#020053"/>
<path d="M44 379.375H1.34375L1.34375 392.5H17.4375V404.844H1.34375L1.34375 417.969H44V404.844H27.8438V392.5H44V379.375Z" fill="#020053"/>
<path d="M20.4688 360.469C14.3438 360.469 11.0625 357.938 11.0625 353.75C11.0625 349.594 14.3438 347.062 20.4688 347.062H24.9063C31.0625 347.062 34.3125 349.594 34.3125 353.75C34.3125 357.938 31.0625 360.469 24.9063 360.469H20.4688ZM24.8438 373.906C36.8125 373.906 44.7188 366.781 44.7188 353.75C44.7188 340.688 36.8125 333.625 24.8438 333.625H20.6563C8.625 333.625 0.65625 340.688 0.65625 353.75C0.65625 366.781 8.53125 373.906 20.6563 373.906H24.8438Z" fill="#020053"/>
<path d="M44 307.875H11.8438L11.8438 297.031H1.34375L1.34375 331.844H11.8438L11.8438 321H44V307.875Z" fill="#020053"/>
<path d="M20.4688 281.844C14.3438 281.844 11.0625 279.312 11.0625 275.125C11.0625 270.969 14.3438 268.438 20.4688 268.438H24.9063C31.0625 268.438 34.3125 270.969 34.3125 275.125C34.3125 279.312 31.0625 281.844 24.9063 281.844H20.4688ZM24.8438 295.281C36.8125 295.281 44.7188 288.156 44.7188 275.125C44.7188 262.062 36.8125 255 24.8438 255H20.6563C8.625 255 0.65625 262.062 0.65625 275.125C0.65625 288.156 8.53125 295.281 20.6563 295.281H24.8438Z" fill="#020053"/>
<path d="M16.0625 212.688C8.59375 212.688 0.65625 218.5 0.65625 231.281C0.65625 244.406 8.96875 251.281 20.1563 251.281H24.875C35.3125 251.281 44.7188 245.781 44.7188 231.406C44.7188 217.812 36.25 212.688 27.875 212.688H19.875V230.281H28.5625V224.969H29.0625C31.5313 224.969 34.2188 226.906 34.2188 231.031C34.2188 236.781 29.5938 238 24.8125 238H20.3125C14.4063 238 11.1563 235.75 11.1563 231.375C11.1563 227.594 13.5625 225.594 16.0625 225.344V212.688Z" fill="#020053"/>
<path d="M1.34375 187.656L1.34375 207.219H44V194.375H29.7813V191.094L44 184.25V169.844L28.125 178.219C27.0313 175.812 23.0938 170.75 16.0313 170.75C7.21875 170.75 1.34375 176.5 1.34375 187.656ZM21.0313 194.375H10.75V189.656C10.75 186.906 12.4688 184.281 15.9688 184.281C19.4375 184.281 21.0313 186.781 21.0313 189.656V194.375Z" fill="#020053"/>
<path d="M44 156.156L35.9375 154.25V142.594L44 140.75V126.75L1.34375 139.562L1.34375 156.188L44 169.125L44 156.156ZM12.1875 148L26.7188 144.688V152.094L12.1875 148.656V148Z" fill="#020053"/>
<path d="M1.34375 123.156H44V110.062H32.4688V103.875C32.4688 93.0625 25.3438 87.9688 17.0313 87.9688C8.875 87.9688 1.34375 92.9062 1.34375 103.688L1.34375 123.156ZM11.0313 110.125V107.25C11.0313 103.625 13.0938 101.219 17.0313 101.219C20.875 101.219 23.0313 103.625 23.0313 107.25V110.125H11.0313Z" fill="#020053"/>
<path d="M44 44.75H1.34375L1.34375 57.875H17.4375V70.2188H1.34375L1.34375 83.3438H44V70.2188H27.8438V57.875H44L44 44.75Z" fill="#020053"/>
<path d="M44 15H30.75L1.34375 0.71875L1.34375 14.4062L18.125 21.0938V21.5625L1.34375 28.1875L1.34375 42.4062L31.1563 28.125H44V15Z" fill="#020053"/>
</svg>
