<svg width="108" height="108" viewBox="0 0 108 108" fill="none" xmlns="http://www.w3.org/2000/svg">
<path fill-rule="evenodd" clip-rule="evenodd" d="M0 54C0 33.4296 0 23.1444 4.55268 15.5487C7.25811 11.035 11.035 7.25811 15.5487 4.55268C23.1444 0 33.4296 0 54 0C74.5704 0 84.8556 0 92.4513 4.55268C96.965 7.25811 100.742 11.035 103.447 15.5487C108 23.1444 108 33.4296 108 54C108 74.5704 108 84.8556 103.447 92.4513C100.742 96.965 96.965 100.742 92.4513 103.447C84.8556 108 74.5704 108 54 108C33.4296 108 23.1444 108 15.5487 103.447C11.035 100.742 7.25811 96.965 4.55268 92.4513C0 84.8556 0 74.5704 0 54ZM50.112 66.976C48.9919 66.976 48.4318 66.976 48.004 67.194C47.6277 67.3857 47.3217 67.6917 47.13 68.068C46.912 68.4958 46.912 69.0559 46.912 70.176V88.208C46.912 89.3281 46.912 89.8882 46.694 90.316C46.5023 90.6923 46.1963 90.9983 45.82 91.19C45.3922 91.408 44.8321 91.408 43.712 91.408H37.2C36.0799 91.408 35.5198 91.408 35.092 91.19C34.7157 90.9983 34.4097 90.6923 34.218 90.316C34 89.8882 34 89.3281 34 88.208V83.408H35.712C36.8321 83.408 37.3922 83.408 37.82 83.19C38.1963 82.9983 38.5023 82.6923 38.694 82.316C38.912 81.8882 38.912 81.3281 38.912 80.208V62.176C38.912 61.0559 38.912 60.4958 39.13 60.068C39.3217 59.6917 39.6277 59.3857 40.004 59.194C40.4319 58.976 40.9919 58.976 42.112 58.976H48.608C53.12 58.976 57.056 58.416 60.416 57.296C63.776 56.176 66.576 54.608 68.816 52.592C71.056 50.576 72.736 48.176 73.856 45.392C74.976 42.576 75.536 39.488 75.536 36.128C75.536 32.896 75.008 29.92 73.952 27.2C73.7307 26.63 73.4841 26.0769 73.2122 25.5406C74.6477 26.3119 75.929 27.1957 77.056 28.192C79.264 30.144 80.896 32.48 81.952 35.2C83.008 37.92 83.536 40.896 83.536 44.128C83.536 47.488 82.976 50.576 81.856 53.392C80.736 56.176 79.056 58.576 76.816 60.592C74.576 62.608 71.776 64.176 68.416 65.296C65.056 66.416 61.12 66.976 56.608 66.976H50.112ZM62.2467 32.6793C62.1176 32.1286 61.9554 31.5982 61.76 31.088C61.184 29.584 60.32 28.304 59.168 27.248C58.016 26.192 56.56 25.392 54.8 24.848C53.04 24.272 50.976 23.984 48.608 23.984H42.112C40.9919 23.984 40.4319 23.984 40.004 24.202C39.6277 24.3937 39.3217 24.6997 39.13 25.076C38.912 25.5038 38.912 26.0639 38.912 27.184V45.696C38.912 46.8161 38.912 47.3762 39.13 47.804C39.3217 48.1803 39.6277 48.4863 40.004 48.678C40.4319 48.896 40.9919 48.896 42.112 48.896H46.912V35.184C46.912 34.0639 46.912 33.5038 47.13 33.076C47.3217 32.6997 47.6277 32.3937 48.004 32.202C48.4318 31.984 48.9919 31.984 50.112 31.984H56.608C58.7322 31.984 60.6118 32.2158 62.2467 32.6793Z" fill="#020053"/>
</svg>
