<svg width="48" height="333" viewBox="0 0 48 333" fill="none" xmlns="http://www.w3.org/2000/svg">
<path d="M47 332.368H0.728012L0.728012 314.064C0.728012 310.65 1.33601 307.578 2.55201 304.848C3.76801 302.096 5.54935 299.92 7.89602 298.32C10.2213 296.72 13.0587 295.92 16.408 295.92C19.4587 295.92 22.0827 296.592 24.28 297.936C26.456 299.28 28.1307 301.189 29.304 303.664C30.4773 306.138 31.064 309.072 31.064 312.464V319.92H47V332.368ZM21.784 320.048V312.848C21.784 311.269 21.1547 309.957 19.896 308.912C18.6373 307.866 17.2613 307.344 15.768 307.344C14.168 307.344 12.8027 307.92 11.672 309.072C10.52 310.202 9.94401 311.461 9.94401 312.848L9.94401 320.048H21.784Z" fill="#020053"/>
<path d="M47 251.216V263.984L31.064 270.704V277.232H47V289.68H0.728012L0.728012 268.688C0.728012 264.677 1.38935 261.456 2.71201 259.024C4.03468 256.571 5.82668 254.789 8.08801 253.68C10.328 252.571 12.8453 252.016 15.64 252.016C18.008 252.016 20.0347 252.336 21.72 252.976C23.384 253.595 24.8133 254.459 26.008 255.568C27.1813 256.656 28.2054 257.915 29.08 259.344L47 251.216ZM21.784 270.096C21.784 268.496 21.1547 267.173 19.896 266.128C18.6373 265.061 17.2613 264.528 15.768 264.528C14.168 264.528 12.8027 265.104 11.672 266.256C10.52 267.408 9.94401 268.688 9.94401 270.096V277.232H21.784V270.096Z" fill="#020053"/>
<path d="M47.64 224.379C47.64 228.965 46.6693 232.944 44.728 236.315C42.7653 239.664 40.0133 242.256 36.472 244.091C32.9307 245.925 28.76 246.843 23.96 246.843C19.1387 246.843 14.9467 245.915 11.384 244.059C7.80001 242.181 5.02668 239.557 3.06401 236.187C1.08001 232.816 0.0880127 228.88 0.0880127 224.379C0.0880127 219.899 1.08001 215.984 3.06401 212.635C5.02668 209.285 7.80001 206.683 11.384 204.827C14.9467 202.971 19.1387 202.043 23.96 202.043C28.7387 202.043 32.9093 202.96 36.472 204.795C40.0133 206.608 42.7653 209.189 44.728 212.539C46.6693 215.888 47.64 219.835 47.64 224.379ZM37.656 224.379C37.656 222.672 37.2293 221.157 36.376 219.835C35.5013 218.491 34.0827 217.445 32.12 216.699C30.136 215.931 27.48 215.547 24.152 215.547C20.7173 215.547 17.976 215.931 15.928 216.699C13.8587 217.445 12.3653 218.491 11.448 219.835C10.5307 221.157 10.072 222.672 10.072 224.379C10.072 226.085 10.5307 227.611 11.448 228.955C12.3653 230.277 13.8587 231.323 15.928 232.091C17.976 232.859 20.7173 233.243 24.152 233.243C27.48 233.243 30.136 232.859 32.12 232.091C34.0827 231.323 35.5013 230.277 36.376 228.955C37.2293 227.611 37.656 226.085 37.656 224.379Z" fill="#020053"/>
<path d="M32.344 176.273C35.7573 176.273 38.5947 176.635 40.856 177.361C43.1173 178.086 44.8133 179.441 45.944 181.425C47.0747 183.387 47.64 186.235 47.64 189.969C47.64 191.27 47.576 192.753 47.448 194.417C47.3414 196.081 47.192 197.393 47 198.353H35.8C35.864 197.777 35.9387 197.115 36.024 196.369C36.088 195.622 36.12 194.918 36.12 194.257C36.12 192.038 35.5547 190.566 34.424 189.841C33.2933 189.115 31.5333 188.753 29.144 188.753H0.728012L0.728012 176.273H32.344Z" fill="#020053"/>
<path d="M47 168.493H0.728012L0.728012 134.317L11.032 134.381L11.032 155.949H18.712V137.901H28.76V156.045H36.632V134.253H47L47 168.493Z" fill="#020053"/>
<path d="M0.0880127 106.824C0.0880127 103.154 0.813346 99.8689 2.26401 96.9676C3.69335 94.0662 5.68801 91.7196 8.24801 89.9276C10.7867 88.1356 13.72 87.0689 17.048 86.7276V99.7196C15.6187 99.9542 14.3813 100.392 13.336 101.032C12.2907 101.672 11.4907 102.514 10.936 103.56C10.36 104.584 10.072 105.81 10.072 107.24C10.072 108.797 10.4773 110.184 11.288 111.4C12.0987 112.616 13.4853 113.576 15.448 114.28C17.3893 114.962 20.056 115.304 23.448 115.304C28.5893 115.304 32.248 114.546 34.424 113.032C36.5787 111.517 37.656 109.586 37.656 107.24C37.656 105.81 37.2933 104.584 36.568 103.56C35.8427 102.514 34.8827 101.672 33.688 101.032C32.472 100.392 31.1493 99.9542 29.72 99.7196V86.7276C32.1093 87.0476 34.3813 87.5916 36.536 88.3596C38.6907 89.1062 40.6107 90.2262 42.296 91.7196C43.96 93.1916 45.272 95.1542 46.232 97.6076C47.1707 100.061 47.64 103.133 47.64 106.824C47.64 111.282 46.584 115.176 44.472 118.504C42.36 121.81 39.4693 124.381 35.8 126.216C32.1307 128.05 27.9493 128.968 23.256 128.968C18.5627 128.968 14.488 128.061 11.032 126.248C7.55468 124.434 4.86668 121.874 2.96801 118.568C1.04801 115.24 0.0880127 111.325 0.0880127 106.824Z" fill="#020053"/>
<path d="M11.672 83.3526H0.728012L0.728012 44.5045H11.672L11.672 57.7526H47V70.2326H11.672V83.3526Z" fill="#020053"/>
<path d="M47.64 20.6431C47.64 23.0324 47.3413 25.4004 46.744 27.7471C46.1467 30.0724 45.24 32.2164 44.024 34.179C42.808 36.1204 41.2827 37.7204 39.448 38.9791C37.592 40.2377 35.416 40.9631 32.92 41.1551V28.4831C34.008 28.2484 34.936 27.7897 35.704 27.1071C36.472 26.4244 37.0693 25.539 37.496 24.451C37.9013 23.363 38.104 22.1151 38.104 20.7071C38.104 19.4271 37.976 18.2217 37.72 17.0911C37.464 15.9391 37.0373 15.0111 36.44 14.3071C35.8213 13.5817 34.968 13.2191 33.88 13.2191C32.9413 13.2191 32.216 13.5924 31.704 14.3391C31.192 15.0644 30.7973 16.0137 30.52 17.1871C30.2427 18.3391 29.9973 19.5551 29.784 20.8351L28.568 27.9071C27.992 31.4484 26.5627 34.3071 24.28 36.4831C21.976 38.6377 18.8613 39.7577 14.936 39.843C11.8213 39.8857 9.16535 39.0537 6.96801 37.347C4.74935 35.619 3.06401 33.3151 1.91201 30.4351C0.738679 27.5337 0.152012 24.3337 0.152012 20.8351C0.152012 16.6111 0.770679 13.0377 2.00801 10.1151C3.24535 7.19239 4.96268 4.97371 7.16002 3.45905C9.35735 1.92304 11.8853 1.12305 14.744 1.05905V13.4111C13.5493 13.5391 12.5893 13.9017 11.864 14.4991C11.1173 15.0964 10.584 15.9071 10.264 16.9311C9.92268 17.9337 9.75201 19.1497 9.75201 20.5791C9.75201 21.7737 9.86935 22.7764 10.104 23.5871C10.3173 24.3764 10.6053 25.0057 10.968 25.4751C11.3093 25.9444 11.6933 26.2857 12.12 26.4991C12.5467 26.6911 12.9733 26.787 13.4 26.787C14.4453 26.787 15.288 26.4564 15.928 25.7951C16.568 25.1337 17.0693 23.8111 17.432 21.8271L18.648 14.7231C19.224 11.4164 20.12 8.82438 21.336 6.94705C22.5307 5.06972 23.8853 3.69373 25.4 2.81906C26.9147 1.92306 28.4187 1.35771 29.912 1.12305C31.4053 0.888379 32.728 0.771057 33.88 0.771057C36.504 0.771057 38.8613 1.64572 40.952 3.39505C43.0213 5.12305 44.6533 7.48041 45.848 10.4671C47.0427 13.4537 47.64 16.8457 47.64 20.6431Z" fill="#020053"/>
</svg>
