<svg width="25" height="20" viewBox="0 0 25 20" fill="none" xmlns="http://www.w3.org/2000/svg">
<path d="M7.94699 11.6758C3.79162 8.13925 0.582943 3.9113 0 0C3.39431 0.155395 7.16079 0.996143 10.714 2.40385C11.0918 3.1552 11.4995 4.06858 11.8025 5.21977C11.975 4.27911 12.0602 3.55371 12.0385 2.95329C12.0385 2.95329 15.5337 4.56449 17.507 6.04394C20.3076 8.14373 22.3356 10.1943 23.6443 12.6786C24.5846 14.4636 25.0543 16.3655 24.995 18.3791C19.3739 11.4175 15.4484 8.39576 6.67495 5.02748C17.6316 9.84027 21.1401 14.662 24.4836 20C19.1696 18.9688 15.3417 17.2308 9.40263 12.8572L9.40908 12.8567C10.8954 12.7501 11.7331 12.6901 13.8089 11.7583C11.862 11.9945 10.1634 11.783 7.94699 11.6758Z" fill="#FF6F94"/>
</svg>
