<svg width="25" height="20" viewBox="0 0 25 20" fill="none" xmlns="http://www.w3.org/2000/svg">
<path fill-rule="evenodd" clip-rule="evenodd" d="M7.86231 20C17.2969 20 22.456 12.3061 22.456 5.63455C22.456 5.41602 22.4514 5.19847 22.4415 4.98191C23.443 4.26923 24.3135 3.37984 25 2.36742C24.081 2.76953 23.092 3.04024 22.0545 3.1623C23.1135 2.53722 23.9265 1.54842 24.31 0.369632C23.319 0.947951 22.2215 1.36828 21.053 1.59518C20.117 0.613756 18.7844 0 17.3089 0C14.4764 0 12.1794 2.26111 12.1794 5.04836C12.1794 5.44457 12.2244 5.82995 12.3124 6.19958C8.04933 5.98843 4.2693 3.97933 1.73977 0.924326C1.29927 1.67048 1.04527 2.53722 1.04527 3.46204C1.04527 5.21373 1.95077 6.76018 3.32779 7.66482C2.48628 7.63923 1.69577 7.41184 1.00476 7.03335C1.00401 7.05453 1.00401 7.07518 1.00401 7.09782C1.00401 9.543 2.77203 11.5846 5.11905 12.0472C4.68805 12.1629 4.23454 12.2249 3.76654 12.2249C3.43653 12.2249 3.11503 12.193 2.80253 12.1339C3.45553 14.14 5.34905 15.5999 7.59407 15.6407C5.83856 16.9952 3.62704 17.8019 1.22351 17.8019C0.810007 17.8019 0.401504 17.7787 0 17.732C2.27002 19.1643 4.96528 20 7.86231 20Z" fill="#2400FF"/>
</svg>
