<svg width="48" height="289" viewBox="0 0 48 289" fill="none" xmlns="http://www.w3.org/2000/svg">
<path d="M0.727997 227.3L47 241.124V250.404L21.848 257.764L47 265.124V274.276L0.727997 288.228L0.727997 276.196L25.56 269.028L0.727997 262.116L0.727997 253.412L25.56 246.244L0.727997 239.332L0.727997 227.3Z" fill="#020053"/>
<path d="M47 183.529V196.297L31.064 203.017V209.545H47V221.993H0.727997L0.727997 201.001C0.727997 196.99 1.38933 193.769 2.712 191.337C4.03467 188.883 5.82667 187.102 8.088 185.993C10.328 184.883 12.8453 184.329 15.64 184.329C18.008 184.329 20.0347 184.649 21.72 185.289C23.384 185.907 24.8133 186.771 26.008 187.881C27.1813 188.969 28.2053 190.227 29.08 191.657L47 183.529ZM21.784 202.409C21.784 200.809 21.1547 199.486 19.896 198.441C18.6373 197.374 17.2613 196.841 15.768 196.841C14.168 196.841 12.8027 197.417 11.672 198.569C10.52 199.721 9.944 201.001 9.944 202.409V209.545H21.784V202.409Z" fill="#020053"/>
<path d="M0.727997 176.305L0.727997 163.857H47V176.305H0.727997Z" fill="#020053"/>
<path d="M11.672 158.603H0.727997L0.727997 119.755H11.672L11.672 133.003H47V145.483H11.672L11.672 158.603Z" fill="#020053"/>
<path d="M0.727997 114.493L0.727997 102.045H47L47 114.493H0.727997Z" fill="#020053"/>
<path d="M0.727997 62.838L0.727997 50.39H47V61.622L19.416 80.982H47V93.43H0.727997L0.727997 80.886L26.52 62.838H0.727997Z" fill="#020053"/>
<path d="M47.64 21.4545C47.64 25.8492 46.648 29.6892 44.664 32.9745C42.6587 36.2599 39.8853 38.8092 36.344 40.6225C32.7813 42.4359 28.6747 43.3425 24.024 43.3425C19.224 43.3425 15.032 42.3825 11.448 40.4625C7.84266 38.5212 5.048 35.8545 3.064 32.4625C1.08 29.0492 0.0879974 25.1239 0.0879974 20.6865C0.0879974 17.5719 0.557331 14.7772 1.496 12.3025C2.43467 9.82786 3.71467 7.71586 5.336 5.96652C6.936 4.19585 8.74933 2.84119 10.776 1.90253C12.8027 0.963862 14.8933 0.47318 17.048 0.430511V13.4545C15.7893 13.7319 14.6587 14.1905 13.656 14.8305C12.6533 15.4492 11.864 16.2705 11.288 17.2945C10.6907 18.3185 10.392 19.5559 10.392 21.0065C10.392 22.5212 10.808 23.9505 11.64 25.2945C12.4507 26.6172 13.8267 27.6945 15.768 28.5265C17.688 29.3372 20.312 29.7425 23.64 29.7425C26.4773 29.7425 28.7707 29.4545 30.52 28.8785C32.248 28.2812 33.5707 27.5239 34.488 26.6065C35.4053 25.6679 36.024 24.6545 36.344 23.5665C36.664 22.4785 36.824 21.4439 36.824 20.4625C36.824 19.5879 36.696 18.7772 36.44 18.0305C36.184 17.2839 35.8533 16.6225 35.448 16.0465C35.0213 15.4705 34.552 14.9905 34.04 14.6065C33.528 14.2012 33.0053 13.9132 32.472 13.7425L30.808 13.1985V21.2625H22.424L22.552 0.0785217H47V8.23853H41.88C42.6693 9.00653 43.512 9.93452 44.408 11.0225C45.304 12.0892 46.072 13.4545 46.712 15.1185C47.3307 16.7825 47.64 18.8945 47.64 21.4545Z" fill="#020053"/>
</svg>
